<?xml version="1.0" encoding="UTF-8"?>
<!DOCTYPE svg PUBLIC "-//W3C//DTD SVG 1.1//EN" "http://www.w3.org/Graphics/SVG/1.1/DTD/svg11.dtd">
<!-- Creator: CorelDRAW X7 -->
<svg xmlns="http://www.w3.org/2000/svg" xml:space="preserve" width="210mm" height="297mm" version="1.1" style="shape-rendering:geometricPrecision; text-rendering:geometricPrecision; image-rendering:optimizeQuality; fill-rule:evenodd; clip-rule:evenodd"
viewBox="0 0 21000 29700"
 xmlns:xlink="http://www.w3.org/1999/xlink"
 sodipodi:linespacing="125%"
 sodipodi:role="line"
 xmlns:dc="http://purl.org/dc/elements/1.1/"
 xmlns:cc="http://creativecommons.org/ns#"
 xmlns:rdf="http://www.w3.org/1999/02/22-rdf-syntax-ns#"
 xmlns:svg="http://www.w3.org/2000/svg"
 xmlns:sodipodi="http://sodipodi.sourceforge.net/DTD/sodipodi-0.dtd"
 xmlns:inkscape="http://www.inkscape.org/namespaces/inkscape"
 enable-background="new 0 0 100 100"
 inkscape:version="0.48.4 r9939"
 sodipodi:docname="opendata.svg">
 <defs>
  <style type="text/css">
   <![CDATA[
    .str0 {stroke:#00A0E3;stroke-width:20}
    .fil1 {fill:#FEFEFE}
    .fil0 {fill:#00A0E3}
    .fil2 {fill:black}
    .fil3 {fill:#00A0E3;fill-rule:nonzero}
   ]]>
  </style>
 </defs>
 <g id="Layer_x0020_1">
  <metadata id="CorelCorpID_0Corel-Layer"/>
  <polygon class="fil0 str0" points="6734,9707 13873,9707 13873,15951 6734,15951 "/>
  <g id="g3">
   <polygon id="polygon5" class="fil1" points="7801,13564 7801,12706 7441,12706 7441,12890 7582,12890 7582,13564 "/>
   <polygon id="polygon7" class="fil1" points="8884,12890 9024,12890 9024,13564 9243,13564 9243,12706 8884,12706 "/>
   <polygon id="polygon9" class="fil1" points="8216,13912 8356,13912 8356,14585 8575,14585 8575,13727 8216,13727 "/>
   <polygon id="polygon11" class="fil1" points="8216,14911 8356,14911 8356,15584 8575,15584 8575,14726 8216,14726 "/>
   <polygon id="polygon13" class="fil1" points="8884,13912 9024,13912 9024,14585 9243,14585 9243,13727 8884,13727 "/>
   <path id="path15" class="fil1" d="M8530 12717c-41,-17 -87,-28 -131,-28 -44,0 -88,10 -130,26 -130,52 -194,162 -194,300l0 239c0,137 65,246 193,299 42,18 86,27 131,27 49,0 97,-11 141,-32 121,-55 175,-165 175,-294l0 -239c0,-134 -60,-243 -185,-298zm-34 543c0,67 -22,127 -101,127 -75,0 -101,-61 -101,-127l0 -251c0,-65 26,-127 101,-127 79,0 101,60 101,127l0 251z" inkscape:connector-curvature="0"/>
   <polygon id="polygon17" class="fil1" points="12484,13912 12625,13912 12625,14585 12844,14585 12844,13727 12484,13727 "/>
   <polygon id="polygon19" class="fil1" points="12484,14911 12625,14911 12625,15584 12844,15584 12844,14726 12484,14726 "/>
   <path id="path21" class="fil1" d="M12799 12717c-41,-17 -87,-28 -131,-28 -44,0 -89,10 -130,26 -130,52 -194,162 -194,300l0 239c0,137 65,246 193,299 41,18 85,27 131,27 48,0 97,-11 141,-32 121,-55 175,-165 175,-294l0 -239c0,-134 -60,-243 -185,-298zm-34 543c0,67 -22,127 -101,127 -75,0 -101,-61 -101,-127l0 -251c0,-65 26,-127 101,-127 79,0 101,60 101,127l0 251z" inkscape:connector-curvature="0"/>
   <polygon id="polygon23" class="fil1" points="11523,14585 11523,13727 11164,13727 11164,13912 11304,13912 11304,14585 "/>
   <polygon id="polygon25" class="fil1" points="11832,13912 11972,13912 11972,14585 12191,14585 12191,13727 11832,13727 "/>
   <path id="path27" class="fil1" d="M11478 14738c-41,-17 -87,-28 -131,-28 -44,0 -88,9 -130,26 -130,52 -194,162 -194,300l0 239c0,137 65,246 193,299 42,17 86,27 131,27 49,0 97,-11 141,-32 121,-55 175,-165 175,-294l0 -239c0,-134 -60,-243 -185,-298l0 0zm-34 543c0,67 -22,127 -101,127 -75,0 -100,-61 -100,-127l0 -251c0,-65 25,-127 100,-127 79,0 101,60 101,127l0 251z" inkscape:connector-curvature="0"/>
   <path id="path29" class="fil1" d="M7756 13739c-41,-18 -87,-28 -132,-28 -44,0 -88,9 -129,26 -130,52 -194,162 -194,300l0 239c0,136 65,245 193,299 41,17 85,26 130,26 49,0 98,-10 142,-31 120,-56 175,-166 175,-294l0 -239c0,-135 -60,-244 -185,-298l0 0zm-34 542c0,68 -22,128 -101,128 -75,0 -101,-62 -101,-128l0 -250c0,-65 26,-127 101,-127 79,0 101,60 101,127l0 250z" inkscape:connector-curvature="0"/>
   <polygon id="polygon31" class="fil1" points="9968,13564 9968,12706 9609,12706 9609,12890 9749,12890 9749,13564 "/>
   <polygon id="polygon33" class="fil1" points="10383,13912 10523,13912 10523,14585 10742,14585 10742,13727 10383,13727 "/>
   <polygon id="polygon35" class="fil1" points="10383,14911 10523,14911 10523,15584 10742,15584 10742,14726 10383,14726 "/>
   <path id="path37" class="fil1" d="M9923 13739c-41,-18 -87,-28 -131,-28 -44,0 -88,9 -130,26 -130,52 -194,162 -194,300l0 239c0,136 65,245 193,299 42,17 86,26 131,26 48,0 97,-10 141,-31 121,-56 175,-166 175,-294l0 -239c0,-135 -60,-244 -185,-298l0 0zm-34 542c0,68 -22,128 -101,128 -75,0 -100,-62 -100,-128l0 -250c0,-65 25,-127 100,-127 79,0 101,60 101,127l0 250z" inkscape:connector-curvature="0"/>
   <path id="path39" class="fil1" d="M12015 12547l66 0 674 2 25 -25c167,-174 270,-410 270,-670 0,-477 -347,-874 -802,-953 -1,0 -2,-1 -3,-1 -80,-453 -477,-798 -953,-798 -448,0 -826,306 -935,721 -166,-134 -377,-214 -606,-214 -482,0 -883,354 -956,816 -151,-99 -332,-157 -526,-157 -534,0 -968,435 -968,968 0,105 17,207 48,301l0 1 1 0 335 1 1167 2 335 1 459 1 53 0c17,1 34,1 52,1l0 -1 105 0c1,0 1,0 2,0l354 1c33,83 77,160 129,230 -65,59 -98,143 -98,241l0 239c0,137 65,246 192,299 42,18 86,27 131,27 49,0 98,-11 142,-32 120,-55 175,-165 175,-294l0 -121c45,11 92,19 140,24l0 97c0,137 65,246 193,299 42,18 86,27 131,27 49,0 97,-11 141,-32 121,-55 175,-165 175,-294l0 -264c44,-30 84,-64 122,-100l187 0 0 674 219 0 0 -858 -257 0c31,-50 59,-103 81,-159l0 0zm-2971 -308l-117 0 -1316 -3c0,0 0,0 0,0 0,-363 295,-658 658,-658 249,0 465,139 577,343 0,-2 -1,-3 -1,-5 45,121 115,231 202,323l-3 0 0 0zm1620 1021c0,67 -23,127 -101,127 -76,0 -101,-61 -101,-127l0 -251c0,-31 6,-61 20,-84 56,48 116,89 182,124l0 211 0 0zm780 0c0,67 -22,127 -101,127 -75,0 -100,-61 -100,-127l0 -108c69,-9 137,-26 201,-49l0 157zm-330 -409c-346,0 -631,-269 -656,-609 0,0 0,0 0,0 0,-1 0,-3 0,-4l-310 0c0,1 0,2 0,3l-431 -1c-347,-18 -624,-312 -624,-664 0,-362 295,-658 658,-658 363,0 658,296 658,658l310 0c0,-18 -1,-35 -2,-53 0,-5 -1,-11 -1,-16 -1,-12 -2,-25 -3,-38 -1,-5 -2,-10 -2,-14 -2,-14 -4,-28 -6,-42 -1,-2 -1,-5 -1,-7 -9,-48 -21,-96 -37,-141l-32 -196c0,-363 295,-658 658,-658 306,0 563,210 637,493 1,0 2,0 3,0 13,51 19,104 19,159 0,51 -6,101 -17,149 47,-10 97,-16 147,-16 58,0 114,7 168,21 282,75 490,332 490,637 0,147 -48,282 -130,392l-840 -1c0,1 0,1 1,2 -6,72 -22,135 -49,199 -99,238 -334,405 -608,405l0 0z" inkscape:connector-curvature="0"/>
  </g>
  <path class="fil2" d="M15934 5479c-246,0 -445,199 -445,446l0 2896c0,246 199,446 445,446l1774 0 0 -3788 -1774 0z"/>
  <polygon class="fil2" points="2688,21521 17839,21521 17839,19293 2688,19293 "/>
  <polygon class="fil2" points="16503,13500 13829,13500 13829,14837 14610,14837 14943,15951 10264,15951 10264,15951 5585,15951 5917,14837 6699,14837 6699,13500 4025,13500 2243,17511 2243,17511 2243,18848 18285,18848 18285,17511 18285,17511 "/>
  <path class="fil2" d="M15043 5925l-2228 0 -2228 1336c-407,263 -669,446 -891,1114 -112,334 -446,1337 -446,1337l1253 0 307 -891c222,-446 1773,-436 1114,223l-1573 1743c-184,183 -331,1460 681,708l3120 -2228 223 -669 668 -668 0 -2005 0 0z"/>
  <sodipodi:namedview pagecolor="#ffffff" bordercolor="#666666" borderopacity="1" objecttolerance="10" gridtolerance="10" guidetolerance="10" inkscape:pageopacity="0" inkscape:pageshadow="2" inkscape:window-width="1680" inkscape:window-height="987" id="namedview41" showgrid="false" fit-margin-top="0" fit-margin-left="0" fit-margin-right="0" fit-margin-bottom="0" inkscape:zoom="1.18" inkscape:cx="164.19686" inkscape:cy="135.09126" inkscape:window-x="-8" inkscape:window-y="-8" inkscape:window-maximized="1" inkscape:current-layer="Calque_1"/>
  <path class="fil3" d="M2629 22048c27,0 50,9 68,27 19,18 29,40 29,65l0 126 77 0 0 -126c0,-25 10,-47 29,-65 19,-18 41,-27 68,-27 27,0 50,9 69,27 19,18 28,40 28,65l0 126 203 0c24,0 45,10 62,30 17,19 25,44 25,72 0,28 -8,52 -25,72 -17,20 -38,30 -62,30l-203 0 0 81 203 0c24,0 45,10 62,30 17,20 25,44 25,72 0,28 -8,52 -25,72 -17,20 -38,30 -62,30l-203 0 0 126c0,26 -9,48 -28,66 -19,18 -42,27 -69,27 -27,0 -49,-9 -68,-27 -19,-18 -29,-40 -29,-66l0 -126 -77 0 0 126c0,26 -10,48 -29,66 -18,18 -41,27 -68,27 -27,0 -50,-9 -69,-27 -18,-18 -28,-40 -28,-66l0 -126 -201 0c-25,0 -45,-10 -63,-30 -17,-20 -25,-44 -25,-72 0,-28 8,-52 25,-72 18,-20 38,-30 63,-30l201 0 0 -81 -201 0c-25,0 -45,-10 -63,-30 -17,-20 -25,-44 -25,-72 0,-28 8,-53 25,-72 18,-20 38,-30 63,-30l201 0 0 -126c0,-25 10,-47 28,-65 19,-18 42,-27 69,-27zm97 503l77 0 0 -81 -77 0 0 81zm789 -503c27,0 50,9 68,27 19,18 29,40 29,65l0 739c0,26 -10,48 -29,65 -18,18 -41,27 -68,27 -27,0 -50,-9 -69,-27 -19,-17 -28,-39 -28,-65l0 -739c0,-25 9,-47 28,-65 19,-18 42,-27 69,-27zm733 6l145 0c45,0 87,5 128,16 41,11 80,27 115,47 36,20 69,44 98,72 30,28 55,59 76,93 21,35 37,71 48,111 11,39 17,80 17,123 0,42 -6,83 -17,122 -11,40 -27,76 -48,111 -21,34 -46,65 -76,93 -29,28 -62,52 -98,72 -35,20 -74,36 -115,47 -41,11 -83,16 -128,16l-145 0c-44,0 -87,-5 -128,-16 -41,-11 -80,-27 -115,-47 -36,-20 -69,-44 -98,-72 -29,-28 -55,-59 -76,-93 -20,-35 -36,-71 -48,-111 -11,-39 -17,-80 -17,-122 0,-43 6,-84 17,-123 12,-40 28,-76 48,-111 21,-34 47,-65 76,-93 29,-28 62,-52 98,-72 35,-20 74,-36 115,-47 41,-11 84,-16 128,-16zm-288 461c0,39 7,74 22,108 15,34 36,63 62,88 26,25 57,45 92,60 35,14 72,22 112,22l145 0c40,0 77,-8 112,-22 36,-15 66,-35 92,-60 26,-25 47,-54 62,-88 15,-34 23,-69 23,-108 0,-38 -8,-73 -23,-107 -15,-34 -36,-63 -62,-88 -26,-25 -56,-45 -92,-59 -35,-15 -72,-23 -112,-23l-145 0c-40,0 -77,8 -112,23 -35,14 -66,34 -92,59 -26,25 -47,54 -62,88 -15,34 -22,69 -22,107zm1151 -468c37,0 66,15 85,47l372 627 374 -628c18,-31 47,-46 84,-46 26,0 49,9 68,27 20,18 29,39 29,65 0,19 -5,36 -17,52l-426 717c-1,1 -1,1 -2,2l0 0c-24,41 -61,61 -110,61 -49,0 -85,-20 -110,-61l-1 0 0 -2 -429 -723c-9,-14 -14,-29 -14,-46 0,-26 9,-47 28,-65 19,-18 42,-27 69,-27zm1649 7l145 0c45,0 87,5 128,16 41,11 80,27 116,47 35,20 68,44 97,72 30,28 55,59 76,93 21,35 37,71 48,111 12,39 17,80 17,123 0,42 -5,83 -17,122 -11,40 -27,76 -48,111 -21,34 -46,65 -76,93 -29,28 -62,52 -97,72 -36,20 -75,36 -116,47 -41,11 -83,16 -128,16l-145 0c-44,0 -87,-5 -128,-16 -41,-11 -79,-27 -115,-47 -36,-20 -68,-44 -98,-72 -29,-28 -54,-59 -75,-93 -21,-35 -37,-71 -49,-111 -11,-39 -17,-80 -17,-122 0,-43 6,-84 17,-123 12,-40 28,-76 49,-111 21,-34 46,-65 75,-93 30,-28 62,-52 98,-72 36,-20 74,-36 115,-47 41,-11 84,-16 128,-16zm-288 461c0,39 7,74 22,108 15,34 36,63 62,88 26,25 57,45 92,60 35,14 72,22 112,22l145 0c40,0 78,-8 113,-22 35,-15 65,-35 91,-60 26,-25 47,-54 62,-88 15,-34 23,-69 23,-108 0,-38 -8,-73 -23,-107 -15,-34 -36,-63 -62,-88 -26,-25 -56,-45 -91,-59 -35,-15 -73,-23 -113,-23l-145 0c-40,0 -77,8 -112,23 -35,14 -66,34 -92,59 -26,25 -47,54 -62,88 -15,34 -22,69 -22,107zm1705 -273l0 637c0,26 -10,48 -28,66 -19,18 -42,26 -69,26 -27,0 -49,-8 -68,-26 -19,-18 -29,-40 -29,-66l0 -637 -457 0 0 -9c0,-51 19,-94 56,-131 38,-36 84,-54 137,-54l723 0c53,0 98,18 136,54 38,37 57,80 57,131l0 9 -458 0zm1095 -188l145 0c45,0 88,5 129,16 41,11 79,27 115,47 35,20 68,44 97,72 30,28 55,59 76,93 21,35 37,71 48,111 12,39 18,80 18,123 0,42 -6,83 -18,122 -11,40 -27,76 -48,111 -21,34 -46,65 -76,93 -29,28 -62,52 -97,72 -36,20 -74,36 -115,47 -41,11 -84,16 -129,16l-145 0c-44,0 -87,-5 -128,-16 -41,-11 -79,-27 -115,-47 -36,-20 -68,-44 -98,-72 -29,-28 -54,-59 -75,-93 -21,-35 -37,-71 -49,-111 -11,-39 -17,-80 -17,-122 0,-43 6,-84 17,-123 12,-40 28,-76 49,-111 21,-34 46,-65 75,-93 30,-28 62,-52 98,-72 36,-20 74,-36 115,-47 41,-11 84,-16 128,-16zm-288 461c0,39 7,74 23,108 15,34 35,63 61,88 27,25 57,45 92,60 35,14 73,22 113,22l144 0c40,0 78,-8 113,-22 35,-15 65,-35 91,-60 26,-25 47,-54 62,-88 15,-34 23,-69 23,-108 0,-38 -8,-73 -23,-107 -15,-34 -36,-63 -62,-88 -26,-25 -56,-45 -91,-59 -35,-15 -73,-23 -113,-23l-144 0c-40,0 -78,8 -113,23 -35,14 -65,34 -92,59 -26,25 -46,54 -61,88 -16,34 -23,69 -23,107zm1306 -98l567 0c26,0 49,-9 67,-27 18,-18 28,-39 28,-65 0,-24 -10,-46 -28,-65 -18,-18 -41,-28 -67,-28l-625 0 0 647c0,26 -9,48 -28,65 -19,18 -41,27 -68,27 -27,0 -50,-9 -69,-27 -19,-17 -28,-39 -28,-65l0 -647c0,-50 19,-94 56,-130 38,-36 84,-54 137,-54l625 0c80,0 147,27 204,81 56,53 84,118 84,194 0,76 -28,141 -84,195 -57,54 -124,82 -204,84l-373 0c-54,0 -99,-18 -137,-54 -38,-36 -57,-80 -57,-131zm1206 -369l684 0c57,0 107,17 150,53 43,35 68,79 77,131l-911 0 0 185 664 0c0,51 -19,95 -57,131 -37,36 -83,54 -136,54l-471 0 0 185 911 0c-9,52 -34,96 -77,131 -43,36 -93,53 -150,53l-684 0c-54,0 -100,-18 -138,-54 -38,-35 -57,-79 -58,-130l0 -555c1,-50 20,-94 58,-130 38,-36 84,-54 138,-54zm1162 0c23,0 43,7 61,21l758 611 0 -540c0,-25 9,-47 28,-65 18,-18 41,-27 68,-27 27,0 49,9 69,27 19,18 28,40 28,65l0 739c0,26 -9,48 -28,65 -20,18 -42,27 -69,27 -23,0 -44,-7 -62,-21l-756 -611 0 540c0,26 -10,48 -28,65 -19,18 -42,27 -69,27 -27,0 -50,-9 -69,-27 -18,-17 -28,-39 -28,-65l0 -739c0,-25 10,-47 28,-65 19,-18 42,-27 69,-27zm1794 923l-184 0c-53,0 -99,-17 -137,-53 -38,-36 -57,-80 -57,-130l378 0 0 183zm0 -737l-435 0 0 646c0,26 -9,48 -28,66 -19,18 -42,27 -69,27 -26,0 -49,-9 -68,-27 -19,-18 -28,-40 -28,-66l0 -646c0,-51 18,-94 56,-131 38,-36 84,-54 137,-54l435 0 0 185zm288 277c0,-38 -7,-74 -22,-108 -15,-33 -36,-63 -62,-88 -26,-25 -57,-45 -92,-60 -35,-14 -73,-21 -112,-21l0 -185c44,0 87,5 128,16 41,11 79,27 115,47 35,19 68,43 98,71 29,28 54,59 75,94 21,34 37,70 49,110 11,39 17,80 17,122 0,42 -6,83 -17,123 -12,39 -28,76 -49,110 -21,34 -46,66 -75,94 -30,28 -63,52 -98,72 -36,20 -74,36 -115,47 -41,11 -84,16 -128,16l0 -183c39,0 77,-8 112,-22 35,-15 66,-35 92,-60 26,-25 47,-54 62,-88 15,-33 22,-69 22,-107zm1656 321c11,16 16,32 16,51 0,24 -9,45 -27,62 -18,18 -40,26 -65,26 -34,0 -61,-13 -79,-40l-107 -153 -769 0 -109 153c-18,27 -44,40 -77,40 -26,0 -48,-8 -66,-26 -18,-17 -27,-38 -27,-62 0,-19 5,-35 16,-51l506 -713c34,-47 81,-71 142,-71 60,0 107,24 141,72l505 712zm-647 -596l-258 365 517 0 -259 -365zm1085 6l0 637c0,26 -9,48 -28,66 -19,18 -42,26 -69,26 -26,0 -49,-8 -68,-26 -19,-18 -28,-40 -28,-66l0 -637 -458 0 0 -9c0,-51 19,-94 57,-131 38,-36 83,-54 137,-54l722 0c53,0 99,18 137,54 38,37 57,80 57,131l0 9 -459 0zm1567 590c12,16 17,32 17,51 0,24 -9,45 -27,62 -19,18 -40,26 -66,26 -34,0 -60,-13 -78,-40l-107 -153 -769 0 -109 153c-18,27 -44,40 -77,40 -26,0 -48,-8 -66,-26 -19,-17 -28,-38 -28,-62 0,-19 6,-35 17,-51l506 -713c34,-47 81,-71 142,-71 60,0 107,24 141,72l504 712zm-646 -596l-258 365 517 0 -259 -365z"/>
  <path class="fil3" d="M9816 23585c0,53 -19,99 -56,136 -38,37 -84,56 -138,56 -54,0 -100,-19 -137,-56 -38,-38 -57,-83 -57,-136 0,-52 19,-97 57,-135 37,-38 83,-56 137,-56 54,0 100,18 138,56 37,37 56,82 56,135zm-34 0c0,-43 -16,-80 -47,-111 -31,-30 -69,-46 -113,-46 -44,0 -82,16 -113,46 -31,31 -47,68 -47,111 0,43 16,80 47,111 31,31 69,46 113,46 44,0 82,-15 113,-46 31,-30 47,-67 47,-111zm217 -180l0 64c21,-25 43,-44 67,-57 23,-12 51,-18 84,-18 34,0 65,8 94,24 29,15 51,38 67,66 16,29 24,59 24,90 0,50 -18,93 -54,128 -35,35 -79,53 -131,53 -62,0 -112,-25 -151,-75l0 208 83 0c9,0 15,2 19,5 3,3 5,7 5,12 0,5 -2,9 -5,13 -4,3 -10,5 -19,5l-164 0c-8,0 -14,-2 -18,-5 -4,-3 -6,-7 -6,-13 0,-5 2,-9 6,-12 4,-3 10,-5 18,-5l47 0 0 -448 -47 0c-8,0 -14,-1 -18,-5 -4,-3 -6,-7 -6,-12 0,-5 2,-9 6,-13 4,-3 10,-5 18,-5l81 0zm301 169c0,-40 -15,-74 -44,-103 -29,-28 -64,-43 -106,-43 -42,0 -78,15 -107,43 -29,29 -44,63 -44,103 0,40 15,75 44,103 29,29 65,43 107,43 42,0 77,-14 106,-43 29,-28 44,-63 44,-103zm526 19l-354 0c6,45 25,81 56,108 32,28 71,41 117,41 26,0 53,-4 82,-13 28,-8 51,-19 69,-34 5,-4 10,-6 13,-6 5,0 9,2 12,5 3,4 5,8 5,13 0,4 -2,9 -7,13 -13,14 -36,27 -70,39 -34,12 -68,18 -104,18 -59,0 -109,-19 -148,-58 -40,-39 -60,-86 -60,-142 0,-50 19,-93 56,-129 38,-36 84,-54 139,-54 56,0 103,18 140,55 36,37 54,85 54,144zm-35 -34c-7,-39 -25,-70 -54,-94 -30,-25 -65,-37 -105,-37 -41,0 -76,12 -105,36 -30,24 -48,55 -55,95l319 0zm242 -154l0 54c25,-25 47,-42 66,-51 20,-10 42,-14 66,-14 27,0 51,5 73,16 15,9 29,23 42,42 12,19 18,38 18,58l0 219 29 0c9,0 15,1 18,5 4,3 6,7 6,12 0,5 -2,9 -6,13 -3,3 -9,5 -18,5l-92 0c-9,0 -15,-2 -18,-5 -4,-4 -6,-8 -6,-13 0,-5 2,-9 6,-12 3,-4 9,-5 18,-5l29 0 0 -213c0,-25 -9,-45 -27,-62 -18,-17 -42,-26 -72,-26 -23,0 -43,5 -60,14 -16,9 -40,32 -72,69l0 218 39 0c8,0 14,1 18,5 3,3 5,7 5,12 0,5 -2,9 -5,13 -4,3 -10,5 -18,5l-111 0c-9,0 -15,-2 -19,-5 -3,-4 -5,-8 -5,-13 0,-5 2,-9 5,-12 4,-4 10,-5 19,-5l38 0 0 -289 -29 0c-8,0 -15,-1 -18,-5 -4,-3 -6,-7 -6,-12 0,-5 2,-9 6,-13 3,-3 10,-5 18,-5l63 0zm791 -160l0 484 47 0c9,0 15,1 18,5 4,3 6,7 6,12 0,5 -2,9 -6,13 -3,3 -9,5 -18,5l-81 0 0 -70c-41,56 -92,83 -154,83 -31,0 -61,-8 -90,-25 -29,-17 -52,-40 -68,-71 -17,-31 -25,-63 -25,-96 0,-33 8,-64 25,-95 16,-31 39,-55 68,-71 29,-17 59,-25 91,-25 60,0 111,27 153,82l0 -197 -47 0c-8,0 -15,-1 -18,-5 -4,-3 -6,-7 -6,-12 0,-5 2,-9 6,-13 3,-3 10,-4 18,-4l81 0zm-34 340c0,-44 -15,-81 -45,-111 -30,-31 -65,-46 -106,-46 -42,0 -77,15 -107,46 -30,30 -45,67 -45,111 0,44 15,81 45,112 30,30 65,45 107,45 41,0 76,-15 106,-45 30,-31 45,-68 45,-112zm472 179l0 -51c-50,43 -104,64 -162,64 -42,0 -74,-10 -98,-32 -24,-21 -35,-46 -35,-77 0,-34 15,-63 46,-88 31,-25 77,-37 136,-37 16,0 33,1 52,3 19,2 39,5 61,9l0 -56c0,-19 -9,-36 -26,-50 -18,-14 -45,-21 -80,-21 -27,0 -65,8 -114,24 -9,3 -15,4 -18,4 -4,0 -8,-1 -11,-5 -3,-3 -5,-7 -5,-12 0,-5 2,-8 4,-11 4,-4 20,-10 47,-17 43,-12 76,-17 98,-17 44,0 78,10 103,32 25,22 37,46 37,73l0 230 47 0c8,0 14,1 18,5 3,3 5,7 5,12 0,5 -2,9 -5,13 -4,3 -10,5 -18,5l-82 0zm0 -173c-16,-5 -33,-8 -52,-10 -18,-3 -37,-4 -57,-4 -51,0 -91,11 -119,33 -22,16 -33,36 -33,58 0,21 9,39 25,53 17,14 41,21 72,21 30,0 58,-6 84,-18 26,-12 53,-31 80,-57l0 -76zm337 -186l187 0c9,0 15,2 19,5 3,3 5,8 5,13 0,5 -2,9 -5,12 -4,3 -10,5 -19,5l-187 0 0 232c0,20 8,37 24,50 16,14 39,20 71,20 23,0 48,-3 76,-10 27,-7 48,-15 63,-24 6,-3 10,-5 14,-5 4,0 8,1 12,5 3,3 5,7 5,12 0,4 -2,8 -6,12 -9,9 -30,19 -64,29 -34,11 -66,16 -98,16 -40,0 -72,-9 -96,-28 -24,-19 -36,-45 -36,-77l0 -232 -64 0c-9,0 -14,-2 -18,-5 -4,-3 -5,-7 -5,-12 0,-5 1,-9 5,-13 4,-3 9,-5 18,-5l64 0 0 -102c0,-9 2,-15 5,-18 3,-4 7,-6 12,-6 5,0 9,2 13,6 3,3 5,9 5,18l0 102zm680 359l0 -51c-51,43 -105,64 -163,64 -41,0 -74,-10 -98,-32 -23,-21 -35,-46 -35,-77 0,-34 16,-63 46,-88 32,-25 77,-37 136,-37 16,0 34,1 53,3 18,2 39,5 61,9l0 -56c0,-19 -9,-36 -27,-50 -18,-14 -44,-21 -80,-21 -27,0 -65,8 -114,24 -9,3 -15,4 -17,4 -5,0 -9,-1 -12,-5 -3,-3 -4,-7 -4,-12 0,-5 1,-8 4,-11 4,-4 19,-10 47,-17 43,-12 75,-17 97,-17 44,0 79,10 103,32 25,22 37,46 37,73l0 230 47 0c8,0 15,1 18,5 4,3 6,7 6,12 0,5 -2,9 -6,13 -3,3 -10,5 -18,5l-81 0zm0 -173c-17,-5 -34,-8 -52,-10 -19,-3 -38,-4 -58,-4 -51,0 -90,11 -119,33 -21,16 -32,36 -32,58 0,21 8,39 24,53 17,14 41,21 73,21 30,0 58,-6 84,-18 26,-12 52,-31 80,-57l0 -76zm523 -163c0,-8 2,-14 5,-17 3,-4 7,-6 12,-6 5,0 9,2 13,6 3,3 5,9 5,18l0 59c0,8 -2,14 -5,18 -4,3 -8,5 -13,5 -5,0 -8,-1 -12,-4 -3,-3 -5,-8 -5,-15 -2,-16 -10,-30 -26,-41 -22,-15 -52,-23 -89,-23 -39,0 -69,8 -91,24 -16,12 -24,25 -24,40 0,16 9,30 29,41 13,8 38,14 75,18 48,5 81,11 100,18 27,9 47,23 60,40 13,17 19,35 19,55 0,30 -14,56 -42,79 -29,23 -70,34 -125,34 -55,0 -100,-14 -135,-42 0,10 -1,16 -2,19 -1,2 -3,5 -5,7 -3,2 -6,3 -10,3 -5,0 -9,-2 -13,-6 -3,-3 -5,-9 -5,-18l0 -71c0,-8 2,-14 5,-18 3,-3 7,-5 13,-5 4,0 9,2 12,5 3,3 5,8 5,14 0,12 3,23 10,32 10,13 25,24 46,32 21,9 47,13 78,13 45,0 79,-8 101,-25 22,-17 33,-34 33,-53 0,-22 -12,-39 -34,-52 -22,-13 -55,-21 -98,-26 -43,-4 -74,-10 -93,-17 -18,-7 -33,-18 -43,-32 -11,-14 -16,-30 -16,-46 0,-30 14,-54 44,-71 29,-18 64,-26 104,-26 48,0 87,11 117,34zm411 -200l0 89 -52 0 0 -89 52 0zm1 177l0 324 135 0c9,0 15,1 18,5 4,3 6,7 6,12 0,5 -2,9 -6,13 -3,3 -9,5 -18,5l-306 0c-9,0 -14,-2 -18,-5 -4,-4 -5,-8 -5,-13 0,-5 1,-9 5,-12 4,-4 9,-5 18,-5l136 0 0 -289 -101 0c-8,0 -14,-2 -18,-5 -4,-3 -6,-7 -6,-12 0,-5 2,-9 6,-13 3,-3 9,-5 18,-5l136 0zm635 36l0 -12c0,-8 1,-15 5,-18 3,-4 7,-6 12,-6 5,0 9,2 12,6 4,3 5,9 5,18l0 78c0,9 -2,15 -5,18 -3,4 -7,6 -12,6 -5,0 -9,-2 -12,-5 -3,-3 -5,-8 -5,-16 -2,-19 -15,-38 -39,-55 -24,-18 -57,-27 -98,-27 -51,0 -90,16 -117,49 -27,32 -40,69 -40,110 0,45 15,82 44,112 29,29 68,44 115,43 27,0 54,-5 82,-14 28,-10 54,-26 76,-48 6,-6 11,-9 15,-9 5,0 9,2 12,5 3,3 5,7 5,12 0,12 -14,27 -42,45 -45,29 -95,44 -150,44 -56,0 -102,-18 -138,-53 -36,-36 -54,-81 -54,-136 0,-56 19,-102 55,-139 37,-37 84,-55 140,-55 53,0 98,15 134,47zm380 -213l0 89 -52 0 0 -89 52 0zm1 177l0 324 135 0c9,0 15,1 19,5 3,3 5,7 5,12 0,5 -2,9 -5,13 -4,3 -10,5 -19,5l-306 0c-8,0 -14,-2 -18,-5 -3,-4 -5,-8 -5,-13 0,-5 2,-9 5,-12 4,-4 10,-5 18,-5l136 0 0 -289 -101 0c-8,0 -14,-2 -18,-5 -4,-3 -5,-7 -5,-12 0,-5 1,-9 5,-13 4,-3 10,-5 18,-5l136 0zm506 -160l0 484 136 0c8,0 14,1 18,5 4,3 5,7 5,12 0,5 -1,9 -5,13 -4,3 -10,5 -18,5l-307 0c-8,0 -14,-2 -17,-5 -4,-4 -6,-8 -6,-13 0,-5 2,-9 6,-12 3,-4 9,-5 17,-5l137 0 0 -450 -100 0c-9,0 -15,-1 -18,-5 -4,-3 -6,-7 -6,-12 0,-5 2,-9 5,-13 4,-3 10,-4 19,-4l134 0zm509 -17l0 89 -51 0 0 -89 51 0zm1 177l0 324 136 0c8,0 14,1 18,5 3,3 5,7 5,12 0,5 -2,9 -5,13 -4,3 -10,5 -18,5l-307 0c-8,0 -14,-2 -17,-5 -4,-4 -6,-8 -6,-13 0,-5 2,-9 6,-12 3,-4 9,-5 17,-5l136 0 0 -289 -100 0c-9,0 -15,-2 -18,-5 -4,-3 -6,-7 -6,-12 0,-5 2,-9 5,-13 4,-3 10,-5 19,-5l135 0zm590 359l0 -51c-51,43 -105,64 -163,64 -42,0 -74,-10 -98,-32 -23,-21 -35,-46 -35,-77 0,-34 16,-63 46,-88 32,-25 77,-37 136,-37 16,0 34,1 53,3 18,2 39,5 61,9l0 -56c0,-19 -9,-36 -27,-50 -18,-14 -44,-21 -80,-21 -27,0 -65,8 -114,24 -9,3 -15,4 -17,4 -5,0 -9,-1 -12,-5 -3,-3 -4,-7 -4,-12 0,-5 1,-8 4,-11 4,-4 19,-10 47,-17 43,-12 75,-17 97,-17 44,0 79,10 103,32 25,22 37,46 37,73l0 230 47 0c8,0 14,1 18,5 4,3 6,7 6,12 0,5 -2,9 -6,13 -4,3 -10,5 -18,5l-81 0zm0 -173c-17,-5 -34,-8 -52,-10 -19,-3 -38,-4 -58,-4 -51,0 -90,11 -119,33 -21,16 -32,36 -32,58 0,21 8,39 24,53 17,14 41,21 73,21 30,0 58,-6 84,-18 25,-12 52,-31 80,-57l0 -76zm400 73l15 0c16,0 29,6 40,17 11,11 16,24 16,39 0,16 -5,29 -16,40 -12,11 -25,16 -40,16l-15 0c-15,0 -28,-5 -39,-16 -11,-11 -17,-24 -17,-39 0,-16 6,-30 17,-40 11,-11 24,-17 39,-17zm534 -436l0 89 -52 0 0 -89 52 0zm1 177l0 324 135 0c9,0 15,1 18,5 4,3 6,7 6,12 0,5 -2,9 -6,13 -3,3 -9,5 -18,5l-306 0c-9,0 -14,-2 -18,-5 -4,-4 -5,-8 -5,-13 0,-5 1,-9 5,-12 4,-4 9,-5 18,-5l136 0 0 -289 -101 0c-8,0 -14,-2 -18,-5 -4,-3 -6,-7 -6,-12 0,-5 2,-9 6,-13 3,-3 9,-5 18,-5l136 0zm417 0l188 0c9,0 15,2 18,5 4,3 6,8 6,13 0,5 -2,9 -6,12 -3,3 -9,5 -18,5l-188 0 0 232c0,20 8,37 24,50 16,14 40,20 71,20 24,0 49,-3 76,-10 27,-7 49,-15 64,-24 5,-3 10,-5 14,-5 4,0 8,1 11,5 3,3 5,7 5,12 0,4 -2,8 -5,12 -9,9 -30,19 -64,29 -34,11 -67,16 -98,16 -41,0 -73,-9 -97,-28 -24,-19 -36,-45 -36,-77l0 -232 -64 0c-8,0 -14,-2 -17,-5 -4,-3 -6,-7 -6,-12 0,-5 2,-9 6,-13 3,-3 9,-5 17,-5l64 0 0 -102c0,-9 2,-15 5,-18 4,-4 8,-6 13,-6 5,0 9,2 12,6 3,3 5,9 5,18l0 102z"/>
 </g>
</svg>
